<mxfile host="Electron" modified="2023-11-06T16:02:09.750Z" agent="Mozilla/5.0 (Windows NT 10.0; Win64; x64) AppleWebKit/537.36 (KHTML, like Gecko) draw.io/22.0.2 Chrome/114.0.5735.289 Electron/25.8.4 Safari/537.36" etag="cDlSejOCtrp005AVLzjr" version="22.0.2" type="device">
  <diagram name="Page-1" id="EE-jT15pnpzbl6qBTpiu">
    <mxGraphModel dx="714" dy="418" grid="1" gridSize="10" guides="1" tooltips="1" connect="1" arrows="1" fold="1" page="1" pageScale="1" pageWidth="850" pageHeight="1100" math="0" shadow="0">
      <root>
        <mxCell id="0" />
        <mxCell id="1" parent="0" />
        <mxCell id="f9WtHt0-h7cXDNdO_0xh-36" value="" style="rounded=0;whiteSpace=wrap;html=1;fillColor=#dae8fc;strokeColor=#6c8ebf;" vertex="1" parent="1">
          <mxGeometry x="360" y="40" width="150" height="390" as="geometry" />
        </mxCell>
        <mxCell id="f9WtHt0-h7cXDNdO_0xh-35" value="" style="rounded=0;whiteSpace=wrap;html=1;fillColor=#fff2cc;strokeColor=#d6b656;" vertex="1" parent="1">
          <mxGeometry x="190" y="40" width="150" height="390" as="geometry" />
        </mxCell>
        <mxCell id="f9WtHt0-h7cXDNdO_0xh-32" value="" style="rounded=0;whiteSpace=wrap;html=1;fillColor=#ffe6cc;strokeColor=#d79b00;" vertex="1" parent="1">
          <mxGeometry x="30" y="40" width="150" height="390" as="geometry" />
        </mxCell>
        <mxCell id="f9WtHt0-h7cXDNdO_0xh-3" style="edgeStyle=orthogonalEdgeStyle;rounded=0;orthogonalLoop=1;jettySize=auto;html=1;exitX=0.5;exitY=1;exitDx=0;exitDy=0;entryX=0.5;entryY=0;entryDx=0;entryDy=0;" edge="1" parent="1" source="f9WtHt0-h7cXDNdO_0xh-1" target="f9WtHt0-h7cXDNdO_0xh-2">
          <mxGeometry relative="1" as="geometry" />
        </mxCell>
        <mxCell id="f9WtHt0-h7cXDNdO_0xh-1" value="开机" style="rounded=0;whiteSpace=wrap;html=1;" vertex="1" parent="1">
          <mxGeometry x="70" y="90" width="90" height="40" as="geometry" />
        </mxCell>
        <mxCell id="f9WtHt0-h7cXDNdO_0xh-5" value="" style="edgeStyle=orthogonalEdgeStyle;rounded=0;orthogonalLoop=1;jettySize=auto;html=1;entryX=0.5;entryY=0;entryDx=0;entryDy=0;" edge="1" parent="1" source="f9WtHt0-h7cXDNdO_0xh-2" target="f9WtHt0-h7cXDNdO_0xh-6">
          <mxGeometry relative="1" as="geometry">
            <mxPoint x="115" y="270" as="targetPoint" />
          </mxGeometry>
        </mxCell>
        <mxCell id="f9WtHt0-h7cXDNdO_0xh-2" value="BIOS自检" style="rounded=0;whiteSpace=wrap;html=1;" vertex="1" parent="1">
          <mxGeometry x="70" y="160" width="90" height="40" as="geometry" />
        </mxCell>
        <mxCell id="f9WtHt0-h7cXDNdO_0xh-10" style="edgeStyle=orthogonalEdgeStyle;rounded=0;orthogonalLoop=1;jettySize=auto;html=1;exitX=0.5;exitY=1;exitDx=0;exitDy=0;entryX=0.5;entryY=0;entryDx=0;entryDy=0;" edge="1" parent="1" source="f9WtHt0-h7cXDNdO_0xh-6" target="f9WtHt0-h7cXDNdO_0xh-8">
          <mxGeometry relative="1" as="geometry" />
        </mxCell>
        <mxCell id="f9WtHt0-h7cXDNdO_0xh-6" value="BIOS初始化" style="rounded=0;whiteSpace=wrap;html=1;" vertex="1" parent="1">
          <mxGeometry x="70" y="230" width="90" height="40" as="geometry" />
        </mxCell>
        <mxCell id="f9WtHt0-h7cXDNdO_0xh-11" style="edgeStyle=orthogonalEdgeStyle;rounded=0;orthogonalLoop=1;jettySize=auto;html=1;exitX=0.5;exitY=1;exitDx=0;exitDy=0;entryX=0.5;entryY=0;entryDx=0;entryDy=0;" edge="1" parent="1" source="f9WtHt0-h7cXDNdO_0xh-8" target="f9WtHt0-h7cXDNdO_0xh-9">
          <mxGeometry relative="1" as="geometry" />
        </mxCell>
        <mxCell id="f9WtHt0-h7cXDNdO_0xh-8" value="选择引导设备" style="rounded=0;whiteSpace=wrap;html=1;" vertex="1" parent="1">
          <mxGeometry x="70" y="300" width="90" height="40" as="geometry" />
        </mxCell>
        <mxCell id="f9WtHt0-h7cXDNdO_0xh-21" style="edgeStyle=orthogonalEdgeStyle;rounded=0;orthogonalLoop=1;jettySize=auto;html=1;exitX=1;exitY=0.5;exitDx=0;exitDy=0;entryX=0;entryY=0.5;entryDx=0;entryDy=0;" edge="1" parent="1" source="f9WtHt0-h7cXDNdO_0xh-9" target="f9WtHt0-h7cXDNdO_0xh-13">
          <mxGeometry relative="1" as="geometry" />
        </mxCell>
        <mxCell id="f9WtHt0-h7cXDNdO_0xh-9" value="加载引导代码" style="rounded=0;whiteSpace=wrap;html=1;" vertex="1" parent="1">
          <mxGeometry x="70" y="370" width="90" height="40" as="geometry" />
        </mxCell>
        <mxCell id="f9WtHt0-h7cXDNdO_0xh-12" style="edgeStyle=orthogonalEdgeStyle;rounded=0;orthogonalLoop=1;jettySize=auto;html=1;exitX=0.5;exitY=1;exitDx=0;exitDy=0;entryX=0.5;entryY=0;entryDx=0;entryDy=0;" edge="1" parent="1" source="f9WtHt0-h7cXDNdO_0xh-13" target="f9WtHt0-h7cXDNdO_0xh-15">
          <mxGeometry relative="1" as="geometry" />
        </mxCell>
        <mxCell id="f9WtHt0-h7cXDNdO_0xh-13" value="加载MBR" style="rounded=0;whiteSpace=wrap;html=1;" vertex="1" parent="1">
          <mxGeometry x="220" y="90" width="90" height="40" as="geometry" />
        </mxCell>
        <mxCell id="f9WtHt0-h7cXDNdO_0xh-14" value="" style="edgeStyle=orthogonalEdgeStyle;rounded=0;orthogonalLoop=1;jettySize=auto;html=1;entryX=0.5;entryY=0;entryDx=0;entryDy=0;" edge="1" parent="1" source="f9WtHt0-h7cXDNdO_0xh-15" target="f9WtHt0-h7cXDNdO_0xh-17">
          <mxGeometry relative="1" as="geometry">
            <mxPoint x="265" y="270" as="targetPoint" />
          </mxGeometry>
        </mxCell>
        <mxCell id="f9WtHt0-h7cXDNdO_0xh-15" value="检查活动分区" style="rounded=0;whiteSpace=wrap;html=1;" vertex="1" parent="1">
          <mxGeometry x="220" y="160" width="90" height="40" as="geometry" />
        </mxCell>
        <mxCell id="f9WtHt0-h7cXDNdO_0xh-16" style="edgeStyle=orthogonalEdgeStyle;rounded=0;orthogonalLoop=1;jettySize=auto;html=1;exitX=0.5;exitY=1;exitDx=0;exitDy=0;entryX=0.5;entryY=0;entryDx=0;entryDy=0;" edge="1" parent="1" source="f9WtHt0-h7cXDNdO_0xh-17" target="f9WtHt0-h7cXDNdO_0xh-19">
          <mxGeometry relative="1" as="geometry" />
        </mxCell>
        <mxCell id="f9WtHt0-h7cXDNdO_0xh-17" value="加载分区引导记录" style="rounded=0;whiteSpace=wrap;html=1;" vertex="1" parent="1">
          <mxGeometry x="220" y="230" width="90" height="40" as="geometry" />
        </mxCell>
        <mxCell id="f9WtHt0-h7cXDNdO_0xh-18" style="edgeStyle=orthogonalEdgeStyle;rounded=0;orthogonalLoop=1;jettySize=auto;html=1;exitX=0.5;exitY=1;exitDx=0;exitDy=0;entryX=0.5;entryY=0;entryDx=0;entryDy=0;" edge="1" parent="1" source="f9WtHt0-h7cXDNdO_0xh-19" target="f9WtHt0-h7cXDNdO_0xh-20">
          <mxGeometry relative="1" as="geometry" />
        </mxCell>
        <mxCell id="f9WtHt0-h7cXDNdO_0xh-19" value="查找bootmgr" style="rounded=0;whiteSpace=wrap;html=1;" vertex="1" parent="1">
          <mxGeometry x="220" y="300" width="90" height="40" as="geometry" />
        </mxCell>
        <mxCell id="f9WtHt0-h7cXDNdO_0xh-31" style="edgeStyle=orthogonalEdgeStyle;rounded=0;orthogonalLoop=1;jettySize=auto;html=1;exitX=1;exitY=0.5;exitDx=0;exitDy=0;entryX=0;entryY=0.5;entryDx=0;entryDy=0;" edge="1" parent="1" source="f9WtHt0-h7cXDNdO_0xh-20" target="f9WtHt0-h7cXDNdO_0xh-23">
          <mxGeometry relative="1" as="geometry" />
        </mxCell>
        <mxCell id="f9WtHt0-h7cXDNdO_0xh-20" value="引导配置检查" style="rounded=0;whiteSpace=wrap;html=1;" vertex="1" parent="1">
          <mxGeometry x="220" y="370" width="90" height="40" as="geometry" />
        </mxCell>
        <mxCell id="f9WtHt0-h7cXDNdO_0xh-22" style="edgeStyle=orthogonalEdgeStyle;rounded=0;orthogonalLoop=1;jettySize=auto;html=1;exitX=0.5;exitY=1;exitDx=0;exitDy=0;entryX=0.5;entryY=0;entryDx=0;entryDy=0;" edge="1" parent="1" source="f9WtHt0-h7cXDNdO_0xh-23" target="f9WtHt0-h7cXDNdO_0xh-25">
          <mxGeometry relative="1" as="geometry" />
        </mxCell>
        <mxCell id="f9WtHt0-h7cXDNdO_0xh-23" value="加载操作系统内核" style="rounded=0;whiteSpace=wrap;html=1;" vertex="1" parent="1">
          <mxGeometry x="390" y="90" width="90" height="40" as="geometry" />
        </mxCell>
        <mxCell id="f9WtHt0-h7cXDNdO_0xh-24" value="" style="edgeStyle=orthogonalEdgeStyle;rounded=0;orthogonalLoop=1;jettySize=auto;html=1;entryX=0.5;entryY=0;entryDx=0;entryDy=0;" edge="1" parent="1" source="f9WtHt0-h7cXDNdO_0xh-25" target="f9WtHt0-h7cXDNdO_0xh-27">
          <mxGeometry relative="1" as="geometry">
            <mxPoint x="435" y="270" as="targetPoint" />
          </mxGeometry>
        </mxCell>
        <mxCell id="f9WtHt0-h7cXDNdO_0xh-25" value="操作系统初始化" style="rounded=0;whiteSpace=wrap;html=1;" vertex="1" parent="1">
          <mxGeometry x="390" y="180" width="90" height="40" as="geometry" />
        </mxCell>
        <mxCell id="f9WtHt0-h7cXDNdO_0xh-26" style="edgeStyle=orthogonalEdgeStyle;rounded=0;orthogonalLoop=1;jettySize=auto;html=1;exitX=0.5;exitY=1;exitDx=0;exitDy=0;entryX=0.5;entryY=0;entryDx=0;entryDy=0;" edge="1" parent="1" source="f9WtHt0-h7cXDNdO_0xh-27" target="f9WtHt0-h7cXDNdO_0xh-29">
          <mxGeometry relative="1" as="geometry" />
        </mxCell>
        <mxCell id="f9WtHt0-h7cXDNdO_0xh-27" value="用户登录" style="rounded=0;whiteSpace=wrap;html=1;" vertex="1" parent="1">
          <mxGeometry x="390" y="270" width="90" height="40" as="geometry" />
        </mxCell>
        <mxCell id="f9WtHt0-h7cXDNdO_0xh-29" value="用户程序" style="rounded=0;whiteSpace=wrap;html=1;" vertex="1" parent="1">
          <mxGeometry x="390" y="370" width="90" height="40" as="geometry" />
        </mxCell>
        <mxCell id="f9WtHt0-h7cXDNdO_0xh-33" value="&lt;b&gt;&lt;font style=&quot;font-size: 15px;&quot;&gt;BIOS&lt;/font&gt;&lt;/b&gt;" style="text;strokeColor=none;align=center;fillColor=none;html=1;verticalAlign=middle;whiteSpace=wrap;rounded=0;" vertex="1" parent="1">
          <mxGeometry x="85" y="50" width="60" height="30" as="geometry" />
        </mxCell>
        <mxCell id="f9WtHt0-h7cXDNdO_0xh-37" value="&lt;span style=&quot;font-size: 15px;&quot;&gt;&lt;b&gt;读取磁盘信息&lt;/b&gt;&lt;/span&gt;" style="text;strokeColor=none;align=center;fillColor=none;html=1;verticalAlign=middle;whiteSpace=wrap;rounded=0;" vertex="1" parent="1">
          <mxGeometry x="235" y="50" width="60" height="30" as="geometry" />
        </mxCell>
        <mxCell id="f9WtHt0-h7cXDNdO_0xh-38" value="&lt;span style=&quot;font-size: 15px;&quot;&gt;&lt;b&gt;运行操作系统&lt;/b&gt;&lt;/span&gt;" style="text;strokeColor=none;align=center;fillColor=none;html=1;verticalAlign=middle;whiteSpace=wrap;rounded=0;" vertex="1" parent="1">
          <mxGeometry x="405" y="50" width="60" height="30" as="geometry" />
        </mxCell>
      </root>
    </mxGraphModel>
  </diagram>
</mxfile>
